<svg width="24" height="24" viewBox="0 0 24 24" fill="none" xmlns="http://www.w3.org/2000/svg">
<path d="M17 16H8.388L8.721 15H18.754L21.326 6H6.644L5.744 3H3V5H4.256L6.951 13.985L6.243 16.109C5.70161 16.2514 5.21097 16.5427 4.82676 16.9499C4.44254 17.3571 4.18013 17.8637 4.06929 18.4125C3.95846 18.9612 4.00363 19.53 4.19969 20.0544C4.39576 20.5787 4.73486 21.0376 5.17852 21.379C5.62219 21.7204 6.15266 21.9307 6.70975 21.9859C7.26684 22.041 7.82824 21.939 8.33027 21.6913C8.83229 21.4436 9.25485 21.0601 9.54998 20.5844C9.84511 20.1087 10.001 19.5598 10 19C9.99669 18.6586 9.93444 18.3203 9.816 18H14.184C14.0656 18.3203 14.0033 18.6586 14 19C14 19.5933 14.1759 20.1734 14.5056 20.6667C14.8352 21.1601 15.3038 21.5446 15.8519 21.7716C16.4001 21.9987 17.0033 22.0581 17.5853 21.9424C18.1672 21.8266 18.7018 21.5409 19.1213 21.1213C19.5409 20.7018 19.8266 20.1672 19.9424 19.5853C20.0581 19.0033 19.9987 18.4001 19.7716 17.8519C19.5446 17.3038 19.1601 16.8352 18.6667 16.5056C18.1734 16.1759 17.5933 16 17 16ZM18.674 8L17.246 13H8.746L7.246 8H18.674ZM8 19C8 19.1978 7.94135 19.3911 7.83147 19.5556C7.72159 19.72 7.56541 19.8482 7.38268 19.9239C7.19996 19.9996 6.99889 20.0194 6.80491 19.9808C6.61093 19.9422 6.43275 19.847 6.29289 19.7071C6.15304 19.5673 6.0578 19.3891 6.01921 19.1951C5.98063 19.0011 6.00043 18.8 6.07612 18.6173C6.15181 18.4346 6.27998 18.2784 6.44443 18.1685C6.60888 18.0586 6.80222 18 7 18C7.26522 18 7.51957 18.1054 7.70711 18.2929C7.89464 18.4804 8 18.7348 8 19ZM17 20C16.8022 20 16.6089 19.9414 16.4444 19.8315C16.28 19.7216 16.1518 19.5654 16.0761 19.3827C16.0004 19.2 15.9806 18.9989 16.0192 18.8049C16.0578 18.6109 16.153 18.4327 16.2929 18.2929C16.4327 18.153 16.6109 18.0578 16.8049 18.0192C16.9989 17.9806 17.2 18.0004 17.3827 18.0761C17.5654 18.1518 17.7216 18.28 17.8315 18.4444C17.9414 18.6089 18 18.8022 18 19C18 19.2652 17.8946 19.5196 17.7071 19.7071C17.5196 19.8946 17.2652 20 17 20Z" fill="white"/>
</svg>
