<svg width="24" height="24" viewBox="0 0 24 24" fill="none" xmlns="http://www.w3.org/2000/svg">
<path d="M12.0005 21.5709L3.51547 13.0859C2.39015 11.9607 1.75791 10.4346 1.75781 8.84328C1.75772 7.25194 2.38979 5.72574 3.51497 4.60043C4.64015 3.47511 6.16627 2.84287 7.75761 2.84277C9.34895 2.84268 10.8752 3.47475 12.0005 4.59993C13.1263 3.47602 14.6521 2.84478 16.243 2.84478C17.8338 2.84478 19.3596 3.47602 20.4855 4.59993V4.59993C21.6089 5.72604 22.2398 7.25177 22.2398 8.84243C22.2398 10.4331 21.6089 11.9588 20.4855 13.0849L12.0005 21.5709ZM7.75747 4.84293C6.96626 4.8429 6.19282 5.07752 5.53496 5.5171C4.87711 5.95669 4.3644 6.5815 4.06168 7.3125C3.75895 8.04351 3.67982 8.84787 3.83429 9.62385C3.98876 10.3998 4.36989 11.1126 4.92947 11.6719L12.0005 18.7429L19.0715 11.6719C19.4776 11.2748 19.7945 10.7958 20.0011 10.2667C20.2077 9.7376 20.2992 9.17056 20.2696 8.60333C20.24 8.0361 20.09 7.48167 19.8294 6.97695C19.5688 6.47224 19.2038 6.0288 18.7585 5.67614C18.3132 5.32349 17.798 5.06971 17.247 4.9317C16.696 4.79369 16.122 4.7746 15.563 4.87571C15.0041 4.97683 14.4731 5.19582 14.0054 5.51812C13.5377 5.84042 13.144 6.25863 12.8505 6.74493L12.0005 8.11693L11.1505 6.74493C10.7996 6.15996 10.3019 5.67688 9.7067 5.3436C9.11153 5.01032 8.43957 4.83841 7.75747 4.84493V4.84293Z" fill="#0887CF"/>
</svg>
