<svg width="32" height="32" viewBox="0 0 32 32" fill="none" xmlns="http://www.w3.org/2000/svg">
<path d="M28 22.667H26.3747L25.3333 18.503V13.3337C25.3307 11.0912 24.5208 8.92464 23.0518 7.23036C21.5827 5.53608 19.5528 4.42734 17.3333 4.10699V2.66699H14.6667V4.10699C12.4472 4.42734 10.4173 5.53608 8.94824 7.23036C7.47921 8.92464 6.66929 11.0912 6.66667 13.3337V18.503L5.62533 22.667H4V25.3337H10.856C11.147 26.4771 11.8107 27.491 12.7423 28.2151C13.6738 28.9393 14.8201 29.3324 16 29.3324C17.1799 29.3324 18.3262 28.9393 19.2577 28.2151C20.1893 27.491 20.853 26.4771 21.144 25.3337H28V22.667ZM9.29333 18.991L9.33333 13.3337C9.33333 11.5655 10.0357 9.86986 11.286 8.61961C12.5362 7.36937 14.2319 6.66699 16 6.66699C17.7681 6.66699 19.4638 7.36937 20.714 8.61961C21.9643 9.86986 22.6667 11.5655 22.6667 13.3337V18.667L23.6373 22.667H8.37467L9.29333 18.991ZM16 26.667C15.534 26.6656 15.0765 26.5417 14.6735 26.3076C14.2706 26.0736 13.9362 25.7377 13.704 25.3337H18.296C18.0638 25.7377 17.7294 26.0736 17.3265 26.3076C16.9235 26.5417 16.466 26.6656 16 26.667Z" fill="black"/>
</svg>
