<svg width="24" height="24" viewBox="0 0 24 24" fill="none" xmlns="http://www.w3.org/2000/svg">
<path d="M22.1909 15.489L22.1529 14.662L15.6699 13.736L14.3549 16.31C12.9665 15.5283 11.6973 14.5517 10.5859 13.41C9.4315 12.3004 8.44782 11.0259 7.66691 9.62801L10.4669 8.22801L7.66691 1.70801L6.90691 1.81801C5.61977 1.99531 4.42729 2.59296 3.51491 3.51801C0.341909 6.68701 1.58491 12.9 6.34291 17.657C9.32491 20.638 12.8759 22.239 15.8939 22.238C16.7375 22.2674 17.5784 22.1274 18.3669 21.8263C19.1554 21.5252 19.8756 21.0691 20.4849 20.485C21.1073 19.8208 21.5813 19.0319 21.8754 18.1705C22.1695 17.3092 22.2771 16.3951 22.1909 15.489ZM19.0709 19.071C16.7709 21.371 11.5899 20.071 7.75691 16.243C3.92391 12.415 2.62891 7.22901 4.92891 4.92901C5.35765 4.49451 5.88239 4.16672 6.46091 3.97201L7.88091 7.28501L6.77391 7.83801C6.53411 7.95811 6.32077 8.12498 6.14646 8.3288C5.97215 8.53262 5.84039 8.76926 5.75894 9.02478C5.6775 9.28031 5.64801 9.54955 5.67222 9.81664C5.69643 10.0837 5.77384 10.3433 5.89991 10.58C6.77526 12.1482 7.87598 13.5794 9.16691 14.828C10.4158 16.1045 11.8413 17.1952 13.3999 18.067C13.6402 18.1974 13.904 18.2785 14.1761 18.3054C14.4481 18.3324 14.7227 18.3047 14.9839 18.224C15.2393 18.1445 15.476 18.014 15.6795 17.8404C15.883 17.6668 16.0491 17.4537 16.1679 17.214L16.8149 15.92L20.1819 16.401C20.1435 17.3954 19.7492 18.3429 19.0709 19.071Z" fill="#11142D"/>
</svg>
