<svg width="32" height="32" viewBox="0 0 32 32" fill="none" xmlns="http://www.w3.org/2000/svg">
<path d="M22.6667 21.3333H11.184L11.628 20H25.0053L28.4347 8H8.85867L7.65867 4H4V6.66667H5.67467L9.268 18.6467L8.324 21.4787C7.60214 21.6686 6.94796 22.057 6.43567 22.5999C5.92339 23.1427 5.57351 23.8183 5.42572 24.55C5.27794 25.2816 5.33818 26.04 5.59959 26.7392C5.86101 27.4383 6.31314 28.0502 6.9047 28.5054C7.49625 28.9606 8.20355 29.2409 8.94633 29.3145C9.68911 29.3881 10.4377 29.252 11.107 28.9217C11.7764 28.5914 12.3398 28.0801 12.7333 27.4459C13.1268 26.8116 13.3347 26.0798 13.3333 25.3333C13.3289 24.8781 13.2459 24.427 13.088 24H18.912C18.7541 24.427 18.6711 24.8781 18.6667 25.3333C18.6667 26.1245 18.9013 26.8978 19.3408 27.5556C19.7803 28.2134 20.405 28.7261 21.1359 29.0289C21.8668 29.3316 22.6711 29.4108 23.447 29.2565C24.223 29.1021 24.9357 28.7212 25.4951 28.1618C26.0545 27.6024 26.4355 26.8896 26.5898 26.1137C26.7442 25.3378 26.6649 24.5335 26.3622 23.8026C26.0594 23.0717 25.5467 22.447 24.8889 22.0075C24.2311 21.5679 23.4578 21.3333 22.6667 21.3333ZM24.8987 10.6667L22.9947 17.3333H11.6613L9.66133 10.6667H24.8987ZM10.6667 25.3333C10.6667 25.597 10.5885 25.8548 10.442 26.0741C10.2955 26.2934 10.0872 26.4643 9.84358 26.5652C9.59994 26.6661 9.33185 26.6925 9.07321 26.641C8.81457 26.5896 8.57699 26.4626 8.39052 26.2761C8.20405 26.0897 8.07707 25.8521 8.02562 25.5935C7.97417 25.3348 8.00058 25.0667 8.10149 24.8231C8.20241 24.5795 8.37331 24.3712 8.59257 24.2247C8.81184 24.0782 9.06962 24 9.33333 24C9.68696 24 10.0261 24.1405 10.2761 24.3905C10.5262 24.6406 10.6667 24.9797 10.6667 25.3333ZM22.6667 26.6667C22.403 26.6667 22.1452 26.5885 21.9259 26.442C21.7066 26.2955 21.5357 26.0872 21.4348 25.8436C21.3339 25.5999 21.3075 25.3319 21.359 25.0732C21.4104 24.8146 21.5374 24.577 21.7239 24.3905C21.9103 24.2041 22.1479 24.0771 22.4065 24.0256C22.6652 23.9742 22.9333 24.0006 23.1769 24.1015C23.4205 24.2024 23.6288 24.3733 23.7753 24.5926C23.9218 24.8118 24 25.0696 24 25.3333C24 25.687 23.8595 26.0261 23.6095 26.2761C23.3594 26.5262 23.0203 26.6667 22.6667 26.6667Z" fill="black"/>
</svg>
