<svg width="24" height="24" viewBox="0 0 24 24" fill="none" xmlns="http://www.w3.org/2000/svg">
<path d="M18.5 7H15V4H2V19H4.184C4.38765 19.5845 4.76815 20.0912 5.27275 20.4498C5.77734 20.8083 6.381 21.0009 7 21.0009C7.619 21.0009 8.22266 20.8083 8.72725 20.4498C9.23185 20.0912 9.61235 19.5845 9.816 19H15.184C15.4188 19.6667 15.882 20.2287 16.4915 20.5866C17.1011 20.9445 17.8176 21.0752 18.5142 20.9554C19.2108 20.8356 19.8425 20.4732 20.2975 19.9322C20.7525 19.3913 21.0013 18.7068 21 18H22V11.667L18.5 7ZM4 6H13V13H15V9H17.5L20 12.333V15.78C19.6367 15.4472 19.1963 15.21 18.7185 15.0897C18.2407 14.9693 17.7405 14.9697 17.2629 15.0907C16.7852 15.2117 16.3452 15.4495 15.9823 15.7828C15.6194 16.1161 15.3451 16.5344 15.184 17H9.816C9.61235 16.4155 9.23185 15.9088 8.72725 15.5502C8.22266 15.1917 7.619 14.9991 7 14.9991C6.381 14.9991 5.77734 15.1917 5.27275 15.5502C4.76815 15.9088 4.38765 16.4155 4.184 17H4V6ZM7 19C6.80222 19 6.60888 18.9414 6.44443 18.8315C6.27998 18.7216 6.15181 18.5654 6.07612 18.3827C6.00043 18.2 5.98063 17.9989 6.01921 17.8049C6.0578 17.6109 6.15304 17.4327 6.29289 17.2929C6.43275 17.153 6.61093 17.0578 6.80491 17.0192C6.99889 16.9806 7.19996 17.0004 7.38268 17.0761C7.56541 17.1518 7.72159 17.28 7.83147 17.4444C7.94135 17.6089 8 17.8022 8 18C8 18.2652 7.89464 18.5196 7.70711 18.7071C7.51957 18.8946 7.26522 19 7 19ZM18 19C17.8022 19 17.6089 18.9414 17.4444 18.8315C17.28 18.7216 17.1518 18.5654 17.0761 18.3827C17.0004 18.2 16.9806 17.9989 17.0192 17.8049C17.0578 17.6109 17.153 17.4327 17.2929 17.2929C17.4327 17.153 17.6109 17.0578 17.8049 17.0192C17.9989 16.9806 18.2 17.0004 18.3827 17.0761C18.5654 17.1518 18.7216 17.28 18.8315 17.4444C18.9414 17.6089 19 17.8022 19 18C19 18.2652 18.8946 18.5196 18.7071 18.7071C18.5196 18.8946 18.2652 19 18 19Z" fill="#11142D"/>
</svg>
