<svg width="32" height="32" viewBox="0 0 32 32" fill="none" xmlns="http://www.w3.org/2000/svg">
<path d="M16.0002 16.0003C17.3187 16.0003 18.6076 15.6093 19.704 14.8768C20.8003 14.1442 21.6548 13.1031 22.1594 11.8849C22.6639 10.6667 22.796 9.32627 22.5387 8.03306C22.2815 6.73985 21.6466 5.55197 20.7142 4.61962C19.7819 3.68727 18.594 3.05233 17.3008 2.79509C16.0076 2.53786 14.6671 2.66988 13.4489 3.17447C12.2308 3.67905 11.1896 4.53353 10.457 5.62986C9.72449 6.72619 9.3335 8.01512 9.3335 9.33366C9.33561 11.1011 10.0387 12.7956 11.2885 14.0454C12.5382 15.2952 14.2327 15.9982 16.0002 16.0003ZM16.0002 5.33366C16.7913 5.33366 17.5646 5.56826 18.2224 6.00778C18.8802 6.44731 19.3929 7.07202 19.6957 7.80293C19.9984 8.53383 20.0776 9.3381 19.9233 10.114C19.769 10.8899 19.388 11.6027 18.8286 12.1621C18.2692 12.7215 17.5564 13.1025 16.7805 13.2568C16.0046 13.4111 15.2003 13.3319 14.4694 13.0292C13.7385 12.7264 13.1138 12.2137 12.6743 11.5559C12.2348 10.8981 12.0002 10.1248 12.0002 9.33366C12.0002 8.2728 12.4216 7.25538 13.1717 6.50523C13.9219 5.75509 14.9393 5.33366 16.0002 5.33366Z" fill="black"/>
<path d="M27.9815 26.4465C27.4008 23.7474 25.8738 21.3451 23.6764 19.6737C21.479 18.0023 18.7562 17.1721 16.0001 17.3332C13.244 17.1721 10.5212 18.0023 8.32381 19.6737C6.12642 21.3451 4.59942 23.7474 4.01879 26.4465L3.75879 27.9998H28.2415L27.9815 26.4465ZM7.13079 25.3332C7.99079 23.2998 10.2668 19.9998 16.0001 19.9998C21.6815 19.9998 23.9775 23.2972 24.8548 25.3332H7.13079Z" fill="black"/>
</svg>
